<?xml version="1.0" standalone="no"?>
<!DOCTYPE svg PUBLIC "-//W3C//DTD SVG 20010904//EN"
 "http://www.w3.org/TR/2001/REC-SVG-20010904/DTD/svg10.dtd">
<svg version="1.0" xmlns="http://www.w3.org/2000/svg"
 width="1328.000000pt" height="1328.000000pt" viewBox="0 0 1328.000000 1328.000000"
 preserveAspectRatio="xMidYMid meet">
<metadata>
Created by potrace 1.14, written by Peter Selinger 2001-2017
</metadata>
<g transform="translate(0.000000,1328.000000) scale(0.100000,-0.100000)"
fill="#000000" stroke="none">
<path d="M6437 13264 c-2 -2 -26 -6 -53 -9 -57 -6 -188 -24 -224 -31 -14 -2
-40 -7 -57 -9 -89 -13 -444 -116 -483 -140 -6 -3 -18 -8 -28 -10 -29 -5 -275
-117 -301 -137 -13 -10 -27 -18 -32 -18 -14 0 -223 -127 -306 -186 -45 -33
-119 -88 -164 -124 -88 -69 -353 -328 -404 -395 -16 -21 -38 -46 -47 -54 -10
-9 -18 -19 -18 -24 0 -4 -11 -20 -25 -34 -13 -15 -46 -59 -72 -97 -26 -39 -50
-73 -54 -76 -3 -3 -14 -18 -23 -35 -45 -82 -74 -128 -91 -148 -11 -12 -17 -22
-15 -22 2 0 -24 -58 -59 -130 -35 -71 -68 -139 -72 -150 -10 -24 -32 -78 -34
-85 -1 -3 -5 -12 -8 -20 -15 -34 -70 -199 -83 -250 -8 -30 -17 -64 -20 -75 -3
-11 -7 -31 -10 -45 -3 -14 -7 -33 -10 -42 -5 -18 -11 -46 -19 -93 -3 -16 -8
-37 -10 -45 -2 -8 -7 -39 -10 -69 -4 -30 -9 -63 -11 -75 -7 -35 -16 -146 -19
-232 -1 -45 -6 -87 -9 -93 -4 -6 -3 -11 2 -11 5 0 7 -10 5 -22 -5 -30 29 -83
69 -108 65 -40 163 -8 193 63 7 18 16 86 19 152 3 66 8 131 10 145 3 14 7 50
11 80 4 47 13 99 30 195 12 61 54 227 68 260 6 17 12 35 12 40 0 9 11 39 35
100 4 11 18 47 31 80 23 61 107 237 149 310 38 68 114 189 126 202 7 7 23 29
35 50 13 21 31 47 40 58 9 11 45 54 79 95 112 136 270 291 402 395 35 27 65
52 68 55 3 3 12 10 21 15 9 6 61 40 115 76 80 54 278 169 289 169 2 0 36 15
77 34 90 43 228 96 228 89 0 -3 6 -1 13 5 24 20 322 97 452 117 158 25 240 30
445 30 184 -1 283 -6 375 -21 17 -3 41 -7 55 -9 34 -5 76 -13 135 -25 28 -6
58 -12 68 -13 9 -1 17 -5 17 -10 0 -4 4 -6 8 -3 26 16 541 -174 564 -208 4 -6
8 -7 8 -2 0 5 8 3 18 -5 9 -8 31 -21 47 -29 45 -22 229 -133 240 -146 6 -6 26
-20 45 -32 20 -12 47 -31 60 -43 14 -12 41 -33 60 -48 19 -14 51 -39 70 -56
53 -45 291 -286 322 -325 23 -31 48 -61 78 -97 24 -29 163 -239 195 -296 60
-105 175 -347 175 -367 0 -6 4 -18 10 -28 5 -9 19 -46 30 -82 12 -36 24 -72
27 -80 6 -16 11 -30 17 -57 3 -10 5 -20 6 -23 1 -3 2 -8 1 -12 0 -4 4 -20 10
-35 6 -15 13 -39 15 -53 3 -14 12 -59 20 -100 9 -41 17 -91 19 -110 2 -19 4
-35 5 -35 5 0 21 -191 25 -290 4 -105 19 -141 75 -176 20 -13 88 -19 121 -10
14 3 66 59 75 81 14 32 7 279 -10 370 -2 14 -7 48 -11 75 -12 97 -18 129 -41
230 -3 11 -7 31 -10 45 -19 91 -102 349 -140 435 -10 22 -19 43 -20 48 -1 4
-3 10 -4 15 -1 4 -2 10 -1 15 0 4 -4 7 -9 7 -6 0 -10 5 -10 11 0 36 -205 401
-278 494 -4 6 -19 26 -32 45 -14 19 -30 42 -37 50 -7 8 -43 53 -80 99 -66 83
-285 307 -357 366 -21 17 -43 35 -49 40 -10 9 -131 102 -172 133 -22 16 -159
105 -188 121 -18 10 -61 35 -97 56 -56 32 -265 135 -274 135 -2 0 -21 8 -42
17 -22 9 -43 18 -49 19 -5 2 -54 19 -108 39 -88 31 -229 72 -312 90 -104 23
-293 54 -370 62 -63 6 -543 12 -548 7z"/>
<path d="M6567 12524 c-1 -1 -31 -5 -67 -8 -104 -9 -193 -23 -315 -50 -46 -11
-226 -68 -270 -86 -11 -4 -54 -24 -96 -44 -42 -20 -81 -36 -87 -36 -6 0 -12
-3 -14 -7 -1 -5 -28 -21 -58 -37 -204 -108 -442 -308 -595 -501 -22 -27 -44
-55 -50 -61 -11 -13 -20 -25 -75 -109 -22 -33 -44 -65 -49 -71 -5 -6 -12 -20
-15 -31 -4 -12 -13 -27 -21 -33 -8 -7 -15 -21 -15 -30 0 -10 -4 -20 -8 -22 -9
-4 -38 -64 -82 -173 -18 -44 -36 -89 -41 -100 -8 -19 -45 -149 -54 -188 -2
-10 -6 -26 -9 -35 -3 -9 -8 -30 -11 -47 -2 -16 -7 -41 -10 -55 -38 -193 -38
-522 0 -735 93 -511 372 -968 785 -1286 14 -10 39 -29 55 -42 61 -47 193 -125
303 -180 62 -31 113 -56 115 -56 1 0 13 -4 27 -9 14 -5 27 -10 30 -10 3 -1 23
-8 44 -17 22 -9 47 -18 55 -20 9 -2 57 -15 106 -29 50 -13 104 -26 120 -29 17
-3 37 -8 45 -11 35 -12 244 -29 375 -29 173 -1 305 13 460 50 17 4 35 7 40 8
68 7 387 127 448 168 15 10 27 15 27 10 0 -4 4 -3 8 3 4 6 23 19 42 29 37 19
192 115 200 125 3 3 25 21 50 40 71 54 87 69 194 175 113 112 129 130 203 230
29 38 56 75 60 80 26 33 116 193 151 265 67 143 73 158 77 177 2 10 4 19 5 21
2 1 3 5 4 10 1 4 12 36 23 72 24 71 45 146 48 170 1 8 7 40 13 70 6 30 13 69
16 85 2 17 5 30 6 30 3 0 13 195 13 260 0 59 -6 163 -17 301 -1 17 -5 35 -8
40 -2 5 -5 21 -6 35 -3 45 -60 255 -98 356 -41 113 -109 260 -132 286 -8 9
-12 17 -9 17 13 0 -142 228 -216 317 -42 51 -222 229 -277 273 -30 25 -56 48
-58 53 -2 4 -10 7 -18 7 -8 0 -14 5 -14 10 0 6 -6 10 -14 10 -8 0 -16 4 -18 9
-4 12 -160 111 -174 111 -7 0 -14 4 -16 9 -2 7 -140 76 -243 121 -24 10 -206
70 -226 74 -24 5 -72 16 -112 27 -20 5 -56 12 -80 15 -23 3 -53 7 -67 8 -105
14 -181 19 -283 20 -65 1 -119 0 -120 0z"/>
<path d="M2675 9377 c-42 -24 -75 -77 -75 -120 0 -38 26 -96 53 -119 47 -40
142 -124 165 -145 12 -13 25 -23 27 -23 2 0 17 -12 33 -27 50 -48 122 -112
122 -108 0 2 17 -13 38 -33 21 -20 69 -64 107 -97 39 -33 75 -64 81 -70 6 -5
39 -35 74 -65 70 -60 138 -120 185 -162 17 -15 41 -36 55 -48 78 -68 147 -128
171 -150 15 -14 48 -43 73 -64 26 -21 60 -51 75 -65 38 -35 155 -139 200 -176
19 -16 58 -50 86 -75 28 -25 79 -70 114 -100 35 -30 73 -64 85 -75 11 -11 50
-45 86 -75 35 -30 77 -66 91 -80 15 -14 48 -43 74 -65 26 -22 57 -49 69 -60
12 -11 46 -40 75 -65 29 -25 65 -56 80 -70 15 -14 53 -47 85 -75 32 -27 68
-59 80 -70 12 -11 51 -45 86 -75 35 -30 76 -66 90 -80 14 -14 52 -47 83 -73
31 -27 60 -59 63 -73 3 -13 10 -24 14 -24 12 0 4 -83 -10 -111 -7 -13 -23 -32
-34 -42 -18 -16 -118 -104 -150 -132 -6 -5 -34 -30 -62 -55 -27 -25 -83 -74
-124 -110 -40 -36 -85 -76 -99 -89 -14 -12 -46 -39 -70 -60 -25 -20 -56 -47
-71 -61 -14 -14 -57 -52 -96 -85 -38 -33 -81 -71 -96 -85 -14 -14 -45 -41 -68
-60 -22 -19 -56 -48 -74 -65 -18 -16 -46 -41 -62 -55 -193 -168 -232 -202
-274 -240 -15 -14 -50 -44 -76 -67 -27 -22 -61 -52 -75 -65 -14 -12 -52 -45
-83 -73 -32 -27 -71 -61 -86 -75 -15 -14 -56 -50 -91 -80 -34 -30 -81 -71
-103 -91 -23 -20 -54 -47 -70 -60 -15 -13 -38 -33 -50 -44 -13 -11 -40 -36
-62 -55 -22 -19 -73 -64 -114 -100 -41 -36 -77 -67 -80 -70 -3 -3 -36 -32 -75
-65 -38 -33 -72 -63 -75 -66 -3 -3 -84 -74 -180 -158 -96 -84 -177 -158 -179
-165 -2 -6 -9 -14 -15 -18 -6 -4 -11 -31 -12 -60 -2 -42 3 -60 24 -90 45 -63
46 -63 472 -63 322 1 389 3 411 15 23 14 107 84 182 153 17 15 53 47 80 70 28
23 62 53 77 67 15 14 56 50 91 80 35 30 74 65 87 78 13 12 25 22 28 22 2 0 18
14 34 30 16 17 31 30 34 30 2 0 17 12 33 28 15 15 62 56 102 92 41 36 85 74
97 85 12 11 35 31 50 44 132 113 180 156 187 168 5 7 12 11 18 8 5 -4 9 -2 9
3 0 5 30 36 68 67 37 32 100 87 141 124 40 36 82 73 93 81 10 8 36 31 57 50
20 19 66 59 102 89 35 30 69 59 74 65 6 6 57 51 115 101 91 78 139 119 184
160 12 11 145 127 190 165 16 14 41 36 56 50 83 76 165 146 184 157 11 7 17
12 13 13 -4 0 20 23 55 52 35 29 70 59 78 68 8 8 33 30 55 49 36 31 165 144
205 181 9 8 46 41 83 74 83 71 96 96 92 165 -2 51 -5 57 -61 110 -53 51 -162
147 -222 197 -13 10 -40 35 -61 54 -21 19 -62 56 -92 81 -30 26 -66 57 -80 70
-22 21 -93 83 -165 146 -65 56 -140 122 -167 146 -18 16 -56 50 -86 75 -29 26
-69 62 -88 80 -19 17 -36 32 -38 32 -2 0 -15 10 -28 23 -25 24 -119 106 -181
159 -22 18 -54 48 -73 66 -18 17 -35 32 -38 32 -2 0 -28 22 -57 49 -75 69
-101 92 -145 128 -21 17 -55 46 -75 65 -20 18 -60 53 -89 78 -28 25 -64 56
-79 70 -15 14 -51 45 -80 70 -29 25 -68 59 -86 75 -18 17 -51 46 -74 65 -23
19 -59 51 -80 70 -21 19 -65 58 -96 85 -32 28 -65 57 -74 65 -8 8 -31 28 -50
44 -41 33 -156 134 -180 156 -9 8 -49 44 -90 80 -41 36 -77 67 -80 70 -3 3
-39 34 -80 70 -41 36 -86 75 -100 88 -65 60 -61 60 -476 60 -372 0 -381 0
-419 -21z"/>
<path d="M9781 9381 c-29 -16 -91 -66 -155 -126 -18 -16 -59 -52 -91 -80 -32
-27 -63 -54 -69 -60 -6 -5 -45 -39 -86 -75 -41 -36 -85 -74 -96 -85 -12 -11
-46 -41 -76 -66 -29 -26 -75 -66 -103 -90 -27 -24 -66 -58 -84 -74 -19 -17
-53 -46 -75 -66 -23 -20 -56 -49 -75 -65 -18 -16 -45 -40 -60 -54 -15 -14 -51
-45 -80 -70 -29 -25 -59 -50 -66 -57 -7 -6 -34 -31 -61 -54 -27 -23 -79 -68
-116 -101 -37 -33 -78 -69 -90 -80 -13 -10 -48 -41 -78 -68 -30 -27 -66 -59
-80 -70 -14 -12 -47 -41 -75 -65 -27 -24 -59 -52 -71 -62 -37 -31 -157 -137
-185 -163 -15 -14 -40 -36 -56 -49 -27 -23 -155 -135 -179 -156 -6 -5 -39 -35
-74 -65 -80 -71 -159 -141 -180 -160 -8 -8 -45 -40 -80 -70 -36 -30 -75 -64
-87 -75 -46 -43 -71 -65 -158 -140 -265 -230 -275 -242 -275 -306 0 -32 35
-119 49 -119 3 0 20 -12 37 -27 16 -16 59 -53 94 -83 36 -30 74 -64 86 -75 11
-11 49 -45 84 -75 35 -30 86 -75 114 -99 28 -24 53 -47 56 -50 3 -4 32 -29 65
-56 33 -28 66 -57 75 -66 8 -9 49 -45 90 -80 41 -35 84 -73 96 -84 11 -11 43
-39 70 -62 27 -23 63 -54 79 -68 17 -15 54 -47 83 -72 29 -25 66 -58 81 -72
16 -14 52 -46 81 -71 29 -25 58 -50 64 -56 6 -5 83 -73 171 -149 164 -143 201
-175 239 -210 12 -11 51 -45 86 -75 35 -30 71 -62 80 -70 8 -8 44 -40 80 -70
69 -59 150 -131 187 -167 13 -13 26 -23 29 -23 2 0 25 -19 49 -43 25 -23 61
-55 81 -72 20 -16 54 -46 75 -66 22 -20 39 -35 39 -33 0 2 13 -9 28 -24 16
-15 55 -49 86 -77 32 -27 68 -59 80 -70 12 -11 46 -40 75 -65 29 -25 71 -62
94 -83 23 -21 59 -53 80 -70 22 -18 48 -40 57 -50 39 -41 75 -44 468 -43 373
1 377 1 413 24 77 47 92 163 28 222 -29 28 -154 138 -179 160 -14 11 -50 43
-80 70 -30 27 -64 57 -76 67 -21 18 -137 120 -180 158 -12 11 -45 40 -74 65
-29 25 -62 54 -74 65 -13 11 -51 45 -86 75 -35 30 -71 62 -80 70 -18 17 -148
131 -194 170 -16 14 -52 46 -80 71 -28 26 -67 59 -86 75 -19 16 -44 38 -56 49
-11 11 -34 31 -50 45 -50 43 -177 154 -194 170 -9 8 -42 38 -75 65 -32 28 -68
59 -79 70 -26 24 -151 133 -184 161 -13 10 -38 33 -56 49 -18 17 -61 55 -96
85 -35 30 -75 66 -90 80 -15 14 -54 48 -86 75 -32 28 -81 70 -109 95 -27 25
-55 50 -61 55 -33 29 -140 122 -158 138 -60 52 -142 125 -162 144 -25 25 -45
83 -39 114 13 64 16 68 165 198 52 45 111 97 130 114 19 18 85 75 145 127 60
52 128 112 150 132 22 20 50 45 61 55 116 99 139 119 148 128 6 6 63 55 126
110 63 55 120 104 126 110 6 5 37 33 70 62 32 28 68 60 80 70 11 10 49 43 84
73 35 30 78 69 96 85 18 17 52 46 75 65 23 19 54 46 68 60 14 14 55 50 91 80
35 30 71 62 80 70 9 8 49 44 90 80 41 36 82 73 92 83 10 9 22 17 27 17 5 0 11
4 13 8 2 5 28 31 59 58 132 117 205 181 243 214 22 19 79 69 126 110 46 41 98
86 114 100 15 14 38 34 50 45 13 11 51 45 86 75 92 80 100 88 116 126 20 48
17 81 -11 129 -42 73 -47 73 -478 73 -329 0 -381 -3 -406 -17z"/>
<path d="M6538 5005 c-2 -2 -37 -6 -78 -10 -82 -8 -115 -12 -115 -15 0 -1 -11
-3 -25 -5 -14 -2 -38 -6 -55 -10 -16 -3 -41 -8 -55 -11 -84 -17 -318 -96 -357
-120 -13 -8 -23 -12 -23 -9 0 9 -195 -97 -280 -154 -47 -31 -89 -58 -95 -60
-5 -2 -16 -10 -23 -18 -8 -7 -30 -26 -50 -41 -77 -57 -201 -177 -282 -272 -30
-35 -59 -70 -65 -76 -5 -6 -17 -22 -25 -34 -8 -12 -30 -42 -47 -66 -18 -23
-33 -47 -33 -52 0 -4 -8 -17 -17 -28 -24 -27 -37 -50 -98 -174 -61 -123 -140
-324 -138 -350 0 -3 -4 -16 -9 -30 -5 -13 -16 -55 -23 -92 -26 -123 -26 -121
-41 -253 -8 -74 -8 -354 0 -415 3 -24 8 -67 11 -95 3 -27 8 -57 10 -65 2 -8 7
-27 10 -42 3 -16 7 -40 10 -55 11 -54 39 -149 68 -228 16 -44 31 -90 34 -103
3 -12 10 -22 16 -22 6 0 8 -3 4 -6 -5 -5 49 -125 74 -164 5 -8 15 -27 22 -42
6 -16 15 -28 19 -28 4 0 8 -5 8 -10 0 -16 94 -153 164 -240 75 -94 240 -259
326 -326 171 -135 389 -257 575 -324 50 -18 97 -35 105 -38 8 -3 20 -7 25 -7
6 -1 17 -5 25 -8 8 -3 47 -13 85 -22 102 -23 116 -26 155 -31 19 -2 51 -7 70
-10 86 -14 391 -21 450 -10 14 3 50 7 80 10 30 3 66 8 80 11 14 3 41 8 60 11
88 16 282 73 365 107 40 16 273 133 310 155 51 30 89 56 109 74 11 10 24 18
29 18 4 0 14 6 21 12 7 7 31 27 52 43 143 111 250 224 407 425 53 68 224 370
210 370 -3 0 -1 6 4 13 6 6 25 53 43 102 18 50 35 97 38 105 3 8 6 20 8 25 1
6 11 44 22 85 11 41 25 107 32 145 7 39 14 79 16 89 24 136 19 484 -9 621 -4
17 -9 44 -12 60 -3 17 -7 41 -10 55 -3 14 -8 36 -11 50 -3 14 -11 46 -20 71
-8 25 -16 54 -19 65 -7 30 -31 93 -38 100 -4 4 -7 14 -7 23 0 21 -127 278
-157 317 -12 17 -23 34 -23 38 0 5 -58 91 -81 121 -5 5 -30 37 -56 70 -102
129 -208 234 -338 335 -38 30 -71 58 -73 62 -2 5 -8 8 -14 8 -5 0 -24 11 -42
25 -18 14 -38 25 -44 25 -7 0 -12 3 -12 8 0 8 -33 28 -140 83 -133 68 -194 93
-360 147 -8 3 -24 7 -35 9 -11 2 -27 6 -35 10 -17 7 -24 9 -60 16 -119 26
-146 30 -260 43 -46 6 -357 13 -362 9z"/>
<path d="M3755 3188 c-30 -11 -55 -31 -55 -43 0 -4 -6 -13 -14 -21 -21 -20
-14 -356 10 -499 4 -22 8 -54 10 -71 1 -18 10 -66 18 -107 9 -42 19 -93 22
-114 3 -21 10 -42 14 -48 5 -5 8 -13 8 -18 1 -20 25 -123 31 -132 4 -5 13 -30
20 -55 11 -41 40 -123 61 -175 5 -11 17 -40 27 -65 33 -82 123 -261 174 -347
50 -86 167 -264 179 -273 3 -3 17 -21 30 -40 13 -19 27 -37 30 -40 3 -3 25
-30 50 -60 51 -63 58 -69 161 -176 91 -94 195 -188 275 -250 33 -25 68 -53 79
-62 41 -34 269 -182 282 -182 7 0 13 -3 13 -7 0 -5 10 -13 23 -19 12 -6 51
-26 87 -45 131 -70 423 -191 496 -205 12 -2 40 -11 64 -19 23 -8 46 -12 51 -9
5 3 9 1 9 -4 0 -6 15 -12 33 -15 17 -3 73 -14 122 -25 50 -11 115 -23 145 -27
30 -4 64 -9 75 -12 52 -11 131 -15 390 -18 153 -2 284 -1 289 3 6 3 31 7 56 8
25 1 45 3 45 4 0 2 14 4 30 5 17 1 44 5 60 8 17 4 48 9 70 13 49 8 70 12 70
14 0 1 9 3 20 4 85 12 408 110 465 141 14 7 27 13 30 13 18 1 280 121 290 133
3 3 20 12 38 20 17 8 32 17 32 21 0 5 9 8 20 8 11 0 20 4 20 8 0 5 12 15 28
23 29 15 159 98 179 114 7 6 19 16 27 23 8 6 18 12 21 12 7 0 92 66 110 84 6
6 33 29 60 51 59 46 307 294 350 349 17 21 35 43 40 50 50 55 215 290 215 306
0 5 5 10 10 10 6 0 10 4 10 10 0 5 19 42 43 82 23 40 51 91 62 113 11 22 25
43 30 47 6 4 7 8 2 8 -4 0 4 21 17 48 87 168 217 570 220 680 1 12 4 22 7 22
3 0 11 42 18 93 7 50 15 101 16 112 10 63 18 178 19 308 3 140 2 149 -21 182
-13 19 -37 42 -53 50 -37 19 -107 14 -144 -10 -48 -32 -56 -62 -61 -232 -5
-142 -9 -205 -20 -283 -2 -14 -4 -27 -5 -30 -1 -3 -2 -8 -1 -12 0 -4 -7 -45
-15 -90 -9 -46 -18 -92 -20 -103 -16 -97 -104 -369 -164 -505 -111 -252 -284
-527 -444 -704 -20 -22 -36 -43 -36 -46 0 -4 -11 -13 -25 -20 -13 -7 -23 -16
-22 -19 2 -6 -61 -69 -157 -158 -110 -102 -433 -333 -465 -333 -6 0 -11 -5
-11 -12 0 -6 -3 -8 -7 -5 -3 4 -11 3 -17 -2 -24 -20 -126 -72 -126 -64 0 4 -4
3 -8 -3 -4 -6 -47 -28 -97 -49 -49 -20 -103 -43 -120 -50 -100 -42 -367 -117
-465 -130 -19 -3 -60 -10 -90 -15 -76 -13 -132 -20 -220 -26 -88 -7 -310 -10
-315 -6 -2 2 -41 5 -87 8 -45 2 -99 6 -118 9 -19 3 -62 10 -95 15 -33 5 -69
11 -80 13 -11 3 -40 8 -65 13 -52 9 -59 11 -62 14 -2 1 -14 4 -28 5 -14 2 -47
11 -75 20 -27 10 -54 18 -60 20 -43 8 -203 66 -285 102 -53 24 -84 35 -89 33
-2 -1 -7 2 -10 7 -3 4 -37 24 -76 43 -119 59 -349 204 -415 262 -9 7 -38 31
-65 53 -134 107 -355 331 -415 419 -8 12 -21 29 -28 37 -20 21 -113 157 -151
219 -32 51 -45 74 -104 183 -27 48 -106 223 -111 247 -1 3 -7 14 -13 25 -6 11
-12 23 -12 27 -1 4 -3 13 -6 20 -36 109 -71 222 -81 263 -27 114 -52 247 -60
320 -3 28 -7 64 -10 80 -2 17 -6 93 -9 170 -8 193 -11 216 -41 249 -43 45 -95
57 -159 34z"/>
</g>
</svg>
